<svg width="24" height="21" viewBox="0 0 24 21" fill="none" xmlns="http://www.w3.org/2000/svg">
<path d="M21.75 10.5H18V7.5C18 5.84531 19.3453 4.5 21 4.5H21.375C21.9984 4.5 22.5 3.99844 22.5 3.375V1.125C22.5 0.501562 21.9984 0 21.375 0H21C16.8563 0 13.5 3.35625 13.5 7.5V18.75C13.5 19.9922 14.5078 21 15.75 21H21.75C22.9922 21 24 19.9922 24 18.75V12.75C24 11.5078 22.9922 10.5 21.75 10.5ZM8.25 10.5H4.5V7.5C4.5 5.84531 5.84531 4.5 7.5 4.5H7.875C8.49844 4.5 9 3.99844 9 3.375V1.125C9 0.501562 8.49844 0 7.875 0H7.5C3.35625 0 0 3.35625 0 7.5V18.75C0 19.9922 1.00781 21 2.25 21H8.25C9.49219 21 10.5 19.9922 10.5 18.75V12.75C10.5 11.5078 9.49219 10.5 8.25 10.5Z" fill="#E21687"/>
</svg>
